<?xml version="1.0" encoding="UTF-8" standalone="no"?>
<!DOCTYPE svg PUBLIC "-//W3C//DTD SVG 1.1//EN"
 "http://www.w3.org/Graphics/SVG/1.1/DTD/svg11.dtd">
<!-- Generated by graphviz version 2.50.0 (20211204.2007)
 -->
<!-- Title: Visualization Pages: 1 -->
<svg width="997pt" height="556pt"
 viewBox="0.00 0.00 997.00 555.80" xmlns="http://www.w3.org/2000/svg" xmlns:xlink="http://www.w3.org/1999/xlink">
<g id="graph0" class="graph" transform="scale(1 1) rotate(0) translate(4 551.8)">
<title>Visualization</title>
<polygon fill="White" stroke="transparent" points="-4,4 -4,-551.8 993,-551.8 993,4 -4,4"/>
<g id="clust1" class="cluster">
<title>clustermain</title>
<path fill="#fffff0" stroke="White" d="M20,-8C20,-8 766,-8 766,-8 772,-8 778,-14 778,-20 778,-20 778,-527.8 778,-527.8 778,-533.8 772,-539.8 766,-539.8 766,-539.8 20,-539.8 20,-539.8 14,-539.8 8,-533.8 8,-527.8 8,-527.8 8,-20 8,-20 8,-14 14,-8 20,-8"/>
<image xlink:href="C:\Users\admin\Documents\PowerShell\Modules\AzViz\1.2.1\icons\Subscriptions.png" width="15px" height="21px" preserveAspectRatio="xMinYMin meet" x="275" y="-535.3"/>
<text text-anchor="start" x="290" y="-528.1" font-family="Courier New" font-size="9.00"> &#160;Subscription: Azuresubscription1</text>
<text text-anchor="start" x="290" y="-517.6" font-family="Courier New" font-size="9.00"> &#160;Id: 1a3ece7f&#45;6afe&#45;48ef&#45;be16&#45;ba7674cd66bb</text>
</g>
<g id="clust2" class="cluster">
<title>clustergegteastrg1</title>
<path fill="ghostwhite" stroke="black" stroke-dasharray="5,2" d="M40,-16C40,-16 758,-16 758,-16 764,-16 770,-22 770,-28 770,-28 770,-490.8 770,-490.8 770,-496.8 764,-502.8 758,-502.8 758,-502.8 40,-502.8 40,-502.8 34,-502.8 28,-496.8 28,-490.8 28,-490.8 28,-28 28,-28 28,-22 34,-16 40,-16"/>
<image xlink:href="C:\Users\admin\Documents\PowerShell\Modules\AzViz\1.2.1\icons\ResourceGroups.png" width="17px" height="20px" preserveAspectRatio="xMinYMin meet" x="320" y="-498.8"/>
<text text-anchor="start" x="337" y="-491.6" font-family="Courier New" font-size="9.00"> &#160;ResourceGroup: gegteastrg</text>
<text text-anchor="start" x="337" y="-481.6" font-family="Courier New" font-size="9.00"> &#160;Location: eastus</text>
</g>
<g id="clust3" class="cluster">
<title>clustervNet01east</title>
<path fill="none" stroke="mintcream" stroke-dasharray="5,2" d="M266,-114C266,-114 750,-114 750,-114 756,-114 762,-120 762,-126 762,-126 762,-358.5 762,-358.5 762,-364.5 756,-370.5 750,-370.5 750,-370.5 266,-370.5 266,-370.5 260,-370.5 254,-364.5 254,-358.5 254,-358.5 254,-126 254,-126 254,-120 260,-114 266,-114"/>
<image xlink:href="C:\Users\admin\Documents\PowerShell\Modules\AzViz\1.2.1\icons\virtualnetworks.png" width="16px" height="20px" preserveAspectRatio="xMinYMin meet" x="466" y="-366.5"/>
<text text-anchor="start" x="482" y="-359.3" font-family="Courier New" font-size="9.00"> &#160;vNet01&#45;east</text>
<text text-anchor="start" x="482" y="-349.3" font-family="Courier New" font-size="9.00"> &#160;10.1.0.0/16</text>
</g>
<g id="clust4" class="cluster">
<title>clusterdefault</title>
<path fill="whitesmoke" stroke="black" stroke-dasharray="5,2" d="M286,-122C286,-122 742,-122 742,-122 748,-122 754,-128 754,-134 754,-134 754,-322.5 754,-322.5 754,-328.5 748,-334.5 742,-334.5 742,-334.5 286,-334.5 286,-334.5 280,-334.5 274,-328.5 274,-322.5 274,-322.5 274,-134 274,-134 274,-128 280,-122 286,-122"/>
<image xlink:href="C:\Users\admin\Documents\PowerShell\Modules\AzViz\1.2.1\icons\subnets.png" width="18px" height="17px" preserveAspectRatio="xMinYMin meet" x="471" y="-329"/>
<text text-anchor="start" x="489" y="-323.3" font-family="Courier New" font-size="9.00"> &#160;default</text>
<text text-anchor="start" x="489" y="-313.3" font-family="Courier New" font-size="9.00"> &#160;10.1.0.0/24</text>
</g>
<g id="clust5" class="cluster">
<title>clusterElknet</title>
<path fill="none" stroke="mintcream" stroke-dasharray="5,2" d="M634,-419.2C634,-419.2 711,-419.2 711,-419.2 717,-419.2 723,-425.2 723,-431.2 723,-431.2 723,-454.8 723,-454.8 723,-460.8 717,-466.8 711,-466.8 711,-466.8 634,-466.8 634,-466.8 628,-466.8 622,-460.8 622,-454.8 622,-454.8 622,-431.2 622,-431.2 622,-425.2 628,-419.2 634,-419.2"/>
<image xlink:href="C:\Users\admin\Documents\PowerShell\Modules\AzViz\1.2.1\icons\virtualnetworks.png" width="16px" height="20px" preserveAspectRatio="xMinYMin meet" x="630.5" y="-462.8"/>
<text text-anchor="start" x="646.5" y="-455.6" font-family="Courier New" font-size="9.00"> &#160;Elk&#45;net</text>
<text text-anchor="start" x="646.5" y="-445.6" font-family="Courier New" font-size="9.00"> &#160;10.0.0.0/16</text>
</g>
<g id="clust7" class="cluster">
<title>clusterLegend</title>
<polygon fill="#fffff0" stroke="White" points="786,-419.2 786,-471.8 981,-471.8 981,-419.2 786,-419.2"/>
<text text-anchor="middle" x="883.5" y="-459" font-family="Courier New" font-size="11.00">Legend</text>
</g>
<!-- default -->
<!-- microsoft.compute/virtualmachines/jump&#45;box&#45;provisioner -->
<g id="node2" class="node">
<title>microsoft.compute/virtualmachines/jump&#45;box&#45;provisioner</title>
<image xlink:href="C:\Users\admin\Documents\PowerShell\Modules\AzViz\1.2.1\icons\virtualmachines.png" width="50px" height="37px" preserveAspectRatio="xMinYMin meet" x="620" y="-292"/>
<text text-anchor="start" x="577" y="-245.2" font-family="Courier New" font-weight="bold" font-size="11.00">Jump&#45;Box&#45;Provisioner</text>
</g>
<!-- microsoft.network/networkinterfaces/jump&#45;box&#45;provisio950 -->
<g id="node3" class="node">
<title>microsoft.network/networkinterfaces/jump&#45;box&#45;provisio950</title>
<image xlink:href="C:\Users\admin\Documents\PowerShell\Modules\AzViz\1.2.1\icons\nic.png" width="50px" height="37px" preserveAspectRatio="xMinYMin meet" x="642" y="-186.5"/>
<text text-anchor="start" x="599" y="-139.7" font-family="Courier New" font-weight="bold" font-size="11.00">jump&#45;box&#45;provisio950</text>
</g>
<!-- microsoft.compute/virtualmachines/jump&#45;box&#45;provisioner&#45;&gt;microsoft.network/networkinterfaces/jump&#45;box&#45;provisio950 -->
<g id="edge1" class="edge">
<title>microsoft.compute/virtualmachines/jump&#45;box&#45;provisioner&#45;&gt;microsoft.network/networkinterfaces/jump&#45;box&#45;provisio950</title>
<path fill="none" stroke="lightslategrey" stroke-dasharray="5,2" d="M645.31,-235.23C646.92,-225.2 649.19,-213.91 651.72,-203.27"/>
<polygon fill="lightslategrey" stroke="lightslategrey" points="655.18,-203.88 654.21,-193.33 648.39,-202.18 655.18,-203.88"/>
</g>
<!-- microsoft.network/networkinterfaces/jump&#45;box&#45;provisio950&#45;&gt;microsoft.compute/virtualmachines/jump&#45;box&#45;provisioner -->
<g id="edge5" class="edge">
<title>microsoft.network/networkinterfaces/jump&#45;box&#45;provisio950&#45;&gt;microsoft.compute/virtualmachines/jump&#45;box&#45;provisioner</title>
<path fill="none" stroke="#436eee" d="M666.68,-193.33C665.07,-203.36 662.8,-214.65 660.26,-225.29"/>
<polygon fill="#436eee" stroke="#436eee" points="656.81,-224.68 657.77,-235.23 663.6,-226.38 656.81,-224.68"/>
</g>
<!-- microsoft.network/publicipaddresses/vnet01&#45;east&#45;nsg -->
<g id="node14" class="node">
<title>microsoft.network/publicipaddresses/vnet01&#45;east&#45;nsg</title>
<image xlink:href="C:\Users\admin\Documents\PowerShell\Modules\AzViz\1.2.1\icons\publicip.png" width="50px" height="37px" preserveAspectRatio="xMinYMin meet" x="642" y="-80.5"/>
<text text-anchor="start" x="616" y="-33.7" font-family="Courier New" font-weight="bold" font-size="11.00">vNet01&#45;east&#45;nsg</text>
</g>
<!-- microsoft.network/networkinterfaces/jump&#45;box&#45;provisio950&#45;&gt;microsoft.network/publicipaddresses/vnet01&#45;east&#45;nsg -->
<g id="edge10" class="edge">
<title>microsoft.network/networkinterfaces/jump&#45;box&#45;provisio950&#45;&gt;microsoft.network/publicipaddresses/vnet01&#45;east&#45;nsg</title>
<path fill="none" stroke="lightslategrey" stroke-dasharray="5,2" d="M667,-129.86C667,-119.69 667,-108.2 667,-97.38"/>
<polygon fill="lightslategrey" stroke="lightslategrey" points="670.5,-97.28 667,-87.28 663.5,-97.28 670.5,-97.28"/>
</g>
<!-- microsoft.compute/virtualmachines/web&#45;1 -->
<g id="node4" class="node">
<title>microsoft.compute/virtualmachines/web&#45;1</title>
<image xlink:href="C:\Users\admin\Documents\PowerShell\Modules\AzViz\1.2.1\icons\virtualmachines.png" width="39px" height="37px" preserveAspectRatio="xMinYMin meet" x="397" y="-292"/>
<text text-anchor="start" x="399.5" y="-245.2" font-family="Courier New" font-weight="bold" font-size="11.00">Web&#45;1</text>
</g>
<!-- microsoft.network/networkinterfaces/web&#45;1511 -->
<g id="node5" class="node">
<title>microsoft.network/networkinterfaces/web&#45;1511</title>
<image xlink:href="C:\Users\admin\Documents\PowerShell\Modules\AzViz\1.2.1\icons\nic.png" width="50px" height="37px" preserveAspectRatio="xMinYMin meet" x="391.5" y="-186.5"/>
<text text-anchor="start" x="389" y="-139.7" font-family="Courier New" font-weight="bold" font-size="11.00">web&#45;1511</text>
</g>
<!-- microsoft.compute/virtualmachines/web&#45;1&#45;&gt;microsoft.network/networkinterfaces/web&#45;1511 -->
<g id="edge2" class="edge">
<title>microsoft.compute/virtualmachines/web&#45;1&#45;&gt;microsoft.network/networkinterfaces/web&#45;1511</title>
<path fill="none" stroke="lightslategrey" stroke-dasharray="5,2" d="M409.77,-235.23C409.25,-225.31 409.12,-214.15 409.38,-203.6"/>
<polygon fill="lightslategrey" stroke="lightslategrey" points="412.89,-203.46 409.77,-193.33 405.89,-203.19 412.89,-203.46"/>
</g>
<!-- microsoft.compute/availabilitysets/redteamas -->
<g id="node13" class="node">
<title>microsoft.compute/availabilitysets/redteamas</title>
<image xlink:href="C:\Users\admin\Documents\PowerShell\Modules\AzViz\1.2.1\icons\AvailabilitySets.png" width="63px" height="48px" preserveAspectRatio="xMinYMin meet" x="173" y="-192.5"/>
<text text-anchor="start" x="174" y="-134.7" font-family="Courier New" font-weight="bold" font-size="11.00">RedTeamAS</text>
</g>
<!-- microsoft.compute/virtualmachines/web&#45;1&#45;&gt;microsoft.compute/availabilitysets/redteamas -->
<g id="edge8" class="edge">
<title>microsoft.compute/virtualmachines/web&#45;1&#45;&gt;microsoft.compute/availabilitysets/redteamas</title>
<path fill="none" stroke="lightslategrey" stroke-dasharray="5,2" d="M386.4,-250.92C375.69,-245.73 363.43,-240.07 352,-235.5 328.12,-225.95 320.43,-228.11 297,-217.5 282.7,-211.03 267.82,-202.91 254.25,-194.91"/>
<polygon fill="lightslategrey" stroke="lightslategrey" points="255.93,-191.84 245.55,-189.7 252.33,-197.84 255.93,-191.84"/>
</g>
<!-- microsoft.network/networkinterfaces/web&#45;1511&#45;&gt;microsoft.compute/virtualmachines/web&#45;1 -->
<g id="edge6" class="edge">
<title>microsoft.network/networkinterfaces/web&#45;1511&#45;&gt;microsoft.compute/virtualmachines/web&#45;1</title>
<path fill="none" stroke="#436eee" d="M422.23,-193.33C422.75,-203.26 422.88,-214.42 422.62,-224.96"/>
<polygon fill="#436eee" stroke="#436eee" points="419.11,-225.1 422.23,-235.23 426.11,-225.37 419.11,-225.1"/>
</g>
<!-- microsoft.network/loadbalancers/redteam&#45;lb -->
<g id="node15" class="node">
<title>microsoft.network/loadbalancers/redteam&#45;lb</title>
<image xlink:href="C:\Users\admin\Documents\PowerShell\Modules\AzViz\1.2.1\icons\LoadBalancers.png" width="64px" height="48px" preserveAspectRatio="xMinYMin meet" x="49" y="-192.5"/>
<text text-anchor="start" x="47" y="-134.7" font-family="Courier New" font-weight="bold" font-size="11.00">RedTeam&#45;LB</text>
</g>
<!-- microsoft.network/networkinterfaces/web&#45;1511&#45;&gt;microsoft.network/loadbalancers/redteam&#45;lb -->
<g id="edge11" class="edge">
<title>microsoft.network/networkinterfaces/web&#45;1511&#45;&gt;microsoft.network/loadbalancers/redteam&#45;lb</title>
<path fill="none" stroke="lightslategrey" stroke-dasharray="5,2" d="M392.24,-193.29C383.29,-202.75 372.28,-211.95 360,-217 319.52,-233.66 204.85,-229.83 163,-217 153.16,-213.98 143.44,-209.34 134.32,-204"/>
<polygon fill="lightslategrey" stroke="lightslategrey" points="136.11,-201 125.77,-198.7 132.42,-206.94 136.11,-201"/>
</g>
<!-- microsoft.network/loadbalancers/backendaddresspools/rtpool -->
<g id="node16" class="node">
<title>microsoft.network/loadbalancers/backendaddresspools/rtpool</title>
<image xlink:href="C:\Users\admin\Documents\PowerShell\Modules\AzViz\1.2.1\icons\resources.png" width="43px" height="37px" preserveAspectRatio="xMinYMin meet" x="371" y="-80.5"/>
<text text-anchor="start" x="372" y="-33.7" font-family="Courier New" font-weight="bold" font-size="11.00">RTPool</text>
</g>
<!-- microsoft.network/networkinterfaces/web&#45;1511&#45;&gt;microsoft.network/loadbalancers/backendaddresspools/rtpool -->
<g id="edge12" class="edge">
<title>microsoft.network/networkinterfaces/web&#45;1511&#45;&gt;microsoft.network/loadbalancers/backendaddresspools/rtpool</title>
<path fill="none" stroke="#436eee" d="M408.93,-129.86C406.56,-119.58 403.88,-107.96 401.36,-97.05"/>
<polygon fill="#436eee" stroke="#436eee" points="404.76,-96.24 399.1,-87.28 397.94,-97.81 404.76,-96.24"/>
</g>
<!-- microsoft.compute/virtualmachines/web&#45;2 -->
<g id="node6" class="node">
<title>microsoft.compute/virtualmachines/web&#45;2</title>
<image xlink:href="C:\Users\admin\Documents\PowerShell\Modules\AzViz\1.2.1\icons\virtualmachines.png" width="39px" height="37px" preserveAspectRatio="xMinYMin meet" x="294" y="-292"/>
<text text-anchor="start" x="296.5" y="-245.2" font-family="Courier New" font-weight="bold" font-size="11.00">Web&#45;2</text>
</g>
<!-- microsoft.network/networkinterfaces/web&#45;2914 -->
<g id="node7" class="node">
<title>microsoft.network/networkinterfaces/web&#45;2914</title>
<image xlink:href="C:\Users\admin\Documents\PowerShell\Modules\AzViz\1.2.1\icons\nic.png" width="50px" height="37px" preserveAspectRatio="xMinYMin meet" x="296.5" y="-186.5"/>
<text text-anchor="start" x="294" y="-139.7" font-family="Courier New" font-weight="bold" font-size="11.00">web&#45;2914</text>
</g>
<!-- microsoft.compute/virtualmachines/web&#45;2&#45;&gt;microsoft.network/networkinterfaces/web&#45;2914 -->
<g id="edge3" class="edge">
<title>microsoft.compute/virtualmachines/web&#45;2&#45;&gt;microsoft.network/networkinterfaces/web&#45;2914</title>
<path fill="none" stroke="lightslategrey" stroke-dasharray="5,2" d="M309.15,-235.23C309.4,-225.2 310.14,-213.91 311.24,-203.27"/>
<polygon fill="lightslategrey" stroke="lightslategrey" points="314.71,-203.67 312.38,-193.33 307.76,-202.87 314.71,-203.67"/>
</g>
<!-- microsoft.compute/virtualmachines/web&#45;2&#45;&gt;microsoft.compute/availabilitysets/redteamas -->
<g id="edge9" class="edge">
<title>microsoft.compute/virtualmachines/web&#45;2&#45;&gt;microsoft.compute/availabilitysets/redteamas</title>
<path fill="none" stroke="lightslategrey" stroke-dasharray="5,2" d="M283.33,-238.18C282.21,-237.27 281.1,-236.37 280,-235.5 268.67,-226.58 263.89,-226.96 253,-217.5 248.9,-213.93 244.81,-210.04 240.84,-206.02"/>
<polygon fill="lightslategrey" stroke="lightslategrey" points="243.28,-203.51 233.85,-198.69 238.22,-208.34 243.28,-203.51"/>
</g>
<!-- microsoft.network/networkinterfaces/web&#45;2914&#45;&gt;microsoft.compute/virtualmachines/web&#45;2 -->
<g id="edge7" class="edge">
<title>microsoft.network/networkinterfaces/web&#45;2914&#45;&gt;microsoft.compute/virtualmachines/web&#45;2</title>
<path fill="none" stroke="#436eee" d="M324.85,-193.33C324.6,-203.36 323.85,-214.65 322.76,-225.29"/>
<polygon fill="#436eee" stroke="#436eee" points="319.28,-224.89 321.61,-235.23 326.23,-225.69 319.28,-224.89"/>
</g>
<!-- microsoft.network/networkinterfaces/web&#45;2914&#45;&gt;microsoft.network/loadbalancers/redteam&#45;lb -->
<g id="edge13" class="edge">
<title>microsoft.network/networkinterfaces/web&#45;2914&#45;&gt;microsoft.network/loadbalancers/redteam&#45;lb</title>
<path fill="none" stroke="lightslategrey" stroke-dasharray="5,2" d="M299.87,-193.23C291.76,-202.69 281.62,-211.9 270,-217 226.46,-236.12 208.47,-230.94 163,-217 153.16,-213.98 143.44,-209.34 134.32,-204"/>
<polygon fill="lightslategrey" stroke="lightslategrey" points="136.11,-201 125.77,-198.7 132.42,-206.94 136.11,-201"/>
</g>
<!-- microsoft.network/networkinterfaces/web&#45;2914&#45;&gt;microsoft.network/loadbalancers/backendaddresspools/rtpool -->
<g id="edge14" class="edge">
<title>microsoft.network/networkinterfaces/web&#45;2914&#45;&gt;microsoft.network/loadbalancers/backendaddresspools/rtpool</title>
<path fill="none" stroke="#436eee" d="M341.92,-129.86C349.22,-119.16 357.52,-107.01 365.23,-95.71"/>
<polygon fill="#436eee" stroke="#436eee" points="368.24,-97.51 370.99,-87.28 362.46,-93.57 368.24,-97.51"/>
</g>
<!-- microsoft.compute/virtualmachines/elk&#45;host -->
<g id="node8" class="node">
<title>microsoft.compute/virtualmachines/elk&#45;host</title>
<image xlink:href="C:\Users\admin\Documents\PowerShell\Modules\AzViz\1.2.1\icons\virtualmachines.png" width="50px" height="37px" preserveAspectRatio="xMinYMin meet" x="484.5" y="-292"/>
<text text-anchor="start" x="482" y="-245.2" font-family="Courier New" font-weight="bold" font-size="11.00">ELK&#45;Host</text>
</g>
<!-- microsoft.network/networkinterfaces/elk&#45;host600 -->
<g id="node9" class="node">
<title>microsoft.network/networkinterfaces/elk&#45;host600</title>
<image xlink:href="C:\Users\admin\Documents\PowerShell\Modules\AzViz\1.2.1\icons\nic.png" width="50px" height="37px" preserveAspectRatio="xMinYMin meet" x="496.5" y="-186.5"/>
<text text-anchor="start" x="484" y="-139.7" font-family="Courier New" font-weight="bold" font-size="11.00">elk&#45;host600</text>
</g>
<!-- microsoft.compute/virtualmachines/elk&#45;host&#45;&gt;microsoft.network/networkinterfaces/elk&#45;host600 -->
<g id="edge4" class="edge">
<title>microsoft.compute/virtualmachines/elk&#45;host&#45;&gt;microsoft.network/networkinterfaces/elk&#45;host600</title>
<path fill="none" stroke="lightslategrey" stroke-dasharray="5,2" d="M512.57,-235.23C513.73,-225.2 515.04,-213.91 516.27,-203.27"/>
<polygon fill="lightslategrey" stroke="lightslategrey" points="519.75,-203.67 517.43,-193.33 512.8,-202.86 519.75,-203.67"/>
</g>
<!-- microsoft.network/publicipaddresses/elk&#45;host&#45;ip -->
<g id="node17" class="node">
<title>microsoft.network/publicipaddresses/elk&#45;host&#45;ip</title>
<image xlink:href="C:\Users\admin\Documents\PowerShell\Modules\AzViz\1.2.1\icons\publicip.png" width="50px" height="37px" preserveAspectRatio="xMinYMin meet" x="496.5" y="-80.5"/>
<text text-anchor="start" x="484" y="-33.7" font-family="Courier New" font-weight="bold" font-size="11.00">ELK&#45;Host&#45;ip</text>
</g>
<!-- microsoft.network/networkinterfaces/elk&#45;host600&#45;&gt;microsoft.network/publicipaddresses/elk&#45;host&#45;ip -->
<g id="edge15" class="edge">
<title>microsoft.network/networkinterfaces/elk&#45;host600&#45;&gt;microsoft.network/publicipaddresses/elk&#45;host&#45;ip</title>
<path fill="none" stroke="lightslategrey" stroke-dasharray="5,2" d="M521,-129.86C521,-119.69 521,-108.2 521,-97.38"/>
<polygon fill="lightslategrey" stroke="lightslategrey" points="524.5,-97.28 521,-87.28 517.5,-97.28 524.5,-97.28"/>
</g>
<!-- vNet01east -->
<!-- Elknet -->
<!-- gegteastrg1 -->
<!-- microsoft.compute/availabilitysets/redteamas&#45;&gt;microsoft.compute/virtualmachines/web&#45;1 -->
<g id="edge25" class="edge">
<title>microsoft.compute/availabilitysets/redteamas&#45;&gt;microsoft.compute/virtualmachines/web&#45;1</title>
<path fill="none" stroke="lightslategrey" stroke-dasharray="5,2" d="M245.65,-185.83C253.67,-190.15 262.05,-194.55 270,-198.5 305.8,-216.31 315.73,-218.68 352,-235.5 360.19,-239.3 368.95,-243.43 377.27,-247.38"/>
<polygon fill="lightslategrey" stroke="lightslategrey" points="375.89,-250.61 386.43,-251.75 378.91,-244.29 375.89,-250.61"/>
</g>
<!-- microsoft.compute/availabilitysets/redteamas&#45;&gt;microsoft.compute/virtualmachines/web&#45;2 -->
<g id="edge26" class="edge">
<title>microsoft.compute/availabilitysets/redteamas&#45;&gt;microsoft.compute/virtualmachines/web&#45;2</title>
<path fill="none" stroke="lightslategrey" stroke-dasharray="5,2" d="M241.95,-198.54C252.93,-208.96 264.9,-220.33 275.84,-230.71"/>
<polygon fill="lightslategrey" stroke="lightslategrey" points="273.55,-233.37 283.22,-237.72 278.37,-228.29 273.55,-233.37"/>
</g>
<!-- microsoft.network/publicipaddresses/vnet01&#45;east&#45;nsg&#45;&gt;microsoft.network/networkinterfaces/jump&#45;box&#45;provisio950 -->
<g id="edge16" class="edge">
<title>microsoft.network/publicipaddresses/vnet01&#45;east&#45;nsg&#45;&gt;microsoft.network/networkinterfaces/jump&#45;box&#45;provisio950</title>
<path fill="none" stroke="#436eee" d="M667,-87.28C667,-97.46 667,-108.96 667,-119.77"/>
<polygon fill="#436eee" stroke="#436eee" points="663.5,-119.86 667,-129.86 670.5,-119.86 663.5,-119.86"/>
</g>
<!-- microsoft.network/loadbalancers/redteam&#45;lb&#45;&gt;microsoft.network/loadbalancers/redteam&#45;lb -->
<g id="edge19" class="edge">
<title>microsoft.network/loadbalancers/redteam&#45;lb&#45;&gt;microsoft.network/loadbalancers/redteam&#45;lb</title>
<path fill="none" stroke="lightslategrey" stroke-dasharray="5,2" d="M126.02,-171.4C136.39,-170.55 144,-167.25 144,-161.5 144,-157.82 140.88,-155.14 135.9,-153.47"/>
<polygon fill="lightslategrey" stroke="lightslategrey" points="136.5,-150.02 126.02,-151.6 135.2,-156.89 136.5,-150.02"/>
</g>
<!-- microsoft.network/loadbalancers/redteam&#45;lb&#45;&gt;microsoft.network/loadbalancers/backendaddresspools/rtpool -->
<g id="edge20" class="edge">
<title>microsoft.network/loadbalancers/redteam&#45;lb&#45;&gt;microsoft.network/loadbalancers/backendaddresspools/rtpool</title>
<path fill="none" stroke="#436eee" d="M126.16,-127.56C135.04,-122.31 144.55,-117.47 154,-114 195.48,-98.78 310.1,-103.71 351,-87 351.1,-86.96 351.2,-86.92 351.29,-86.88"/>
<polygon fill="#436eee" stroke="#436eee" points="352.85,-90.01 360.23,-82.41 349.72,-83.75 352.85,-90.01"/>
</g>
<!-- microsoft.network/publicipaddresses/redteam&#45;ip -->
<g id="node18" class="node">
<title>microsoft.network/publicipaddresses/redteam&#45;ip</title>
<image xlink:href="C:\Users\admin\Documents\PowerShell\Modules\AzViz\1.2.1\icons\publicip.png" width="50px" height="37px" preserveAspectRatio="xMinYMin meet" x="164" y="-80.5"/>
<text text-anchor="start" x="155" y="-33.7" font-family="Courier New" font-weight="bold" font-size="11.00">RedTeam&#45;IP</text>
</g>
<!-- microsoft.network/loadbalancers/redteam&#45;lb&#45;&gt;microsoft.network/publicipaddresses/redteam&#45;ip -->
<g id="edge18" class="edge">
<title>microsoft.network/loadbalancers/redteam&#45;lb&#45;&gt;microsoft.network/publicipaddresses/redteam&#45;ip</title>
<path fill="none" stroke="lightslategrey" stroke-dasharray="5,2" d="M112.01,-124.42C121.74,-114.69 132.68,-104.15 143.19,-94.33"/>
<polygon fill="lightslategrey" stroke="lightslategrey" points="145.79,-96.69 150.76,-87.33 141.04,-91.55 145.79,-96.69"/>
</g>
<!-- microsoft.network/loadbalancers/probes/sitehealth -->
<g id="node19" class="node">
<title>microsoft.network/loadbalancers/probes/sitehealth</title>
<image xlink:href="C:\Users\admin\Documents\PowerShell\Modules\AzViz\1.2.1\icons\resources.png" width="50px" height="37px" preserveAspectRatio="xMinYMin meet" x="272" y="-80.5"/>
<text text-anchor="start" x="263" y="-33.7" font-family="Courier New" font-weight="bold" font-size="11.00">SiteHealth</text>
</g>
<!-- microsoft.network/loadbalancers/redteam&#45;lb&#45;&gt;microsoft.network/loadbalancers/probes/sitehealth -->
<g id="edge21" class="edge">
<title>microsoft.network/loadbalancers/redteam&#45;lb&#45;&gt;microsoft.network/loadbalancers/probes/sitehealth</title>
<path fill="none" stroke="#436eee" d="M126.26,-129C135.21,-123.55 144.72,-118.27 154,-114 188.92,-97.95 202.99,-102.46 242.56,-86.79"/>
<polygon fill="#436eee" stroke="#436eee" points="244.1,-89.94 251.99,-82.87 241.42,-83.47 244.1,-89.94"/>
</g>
<!-- microsoft.network/loadbalancers/frontendipconfigurations/redteam&#45;fe -->
<g id="node20" class="node">
<title>microsoft.network/loadbalancers/frontendipconfigurations/redteam&#45;fe</title>
<image xlink:href="C:\Users\admin\Documents\PowerShell\Modules\AzViz\1.2.1\icons\resources.png" width="50px" height="37px" preserveAspectRatio="xMinYMin meet" x="56" y="-80.5"/>
<text text-anchor="start" x="47" y="-33.7" font-family="Courier New" font-weight="bold" font-size="11.00">RedTeam&#45;FE</text>
</g>
<!-- microsoft.network/loadbalancers/redteam&#45;lb&#45;&gt;microsoft.network/loadbalancers/frontendipconfigurations/redteam&#45;fe -->
<g id="edge22" class="edge">
<title>microsoft.network/loadbalancers/redteam&#45;lb&#45;&gt;microsoft.network/loadbalancers/frontendipconfigurations/redteam&#45;fe</title>
<path fill="none" stroke="#436eee" d="M81,-124.42C81,-115.73 81,-106.39 81,-97.5"/>
<polygon fill="#436eee" stroke="#436eee" points="84.5,-97.33 81,-87.33 77.5,-97.33 84.5,-97.33"/>
</g>
<!-- microsoft.network/loadbalancers/backendaddresspools/rtpool&#45;&gt;microsoft.network/networkinterfaces/web&#45;1511 -->
<g id="edge23" class="edge">
<title>microsoft.network/loadbalancers/backendaddresspools/rtpool&#45;&gt;microsoft.network/networkinterfaces/web&#45;1511</title>
<path fill="none" stroke="#436eee" d="M397.15,-87.22C398.31,-93.45 399.62,-99.95 401,-106 402.02,-110.48 403.17,-115.15 404.37,-119.78"/>
<polygon fill="#436eee" stroke="#436eee" points="401.08,-121.02 407.03,-129.78 407.84,-119.22 401.08,-121.02"/>
</g>
<!-- microsoft.network/loadbalancers/backendaddresspools/rtpool&#45;&gt;microsoft.network/networkinterfaces/web&#45;2914 -->
<g id="edge24" class="edge">
<title>microsoft.network/loadbalancers/backendaddresspools/rtpool&#45;&gt;microsoft.network/networkinterfaces/web&#45;2914</title>
<path fill="none" stroke="#436eee" d="M367.07,-87.1C362.58,-92.95 358.05,-99.09 354,-105 350.47,-110.16 346.91,-115.7 343.5,-121.22"/>
<polygon fill="#436eee" stroke="#436eee" points="340.48,-119.45 338.29,-129.82 346.47,-123.08 340.48,-119.45"/>
</g>
<!-- microsoft.network/publicipaddresses/redteam&#45;ip&#45;&gt;microsoft.network/loadbalancers/redteam&#45;lb -->
<g id="edge17" class="edge">
<title>microsoft.network/publicipaddresses/redteam&#45;ip&#45;&gt;microsoft.network/loadbalancers/redteam&#45;lb</title>
<path fill="none" stroke="#436eee" d="M163.21,-87.33C153.88,-96.79 143.02,-107.38 132.31,-117.51"/>
<polygon fill="#436eee" stroke="#436eee" points="129.83,-115.03 124.93,-124.42 134.62,-120.13 129.83,-115.03"/>
</g>
<!-- microsoft.compute/virtualmachines/extensions/web&#45;1/enablevmaccess -->
<g id="node21" class="node">
<title>microsoft.compute/virtualmachines/extensions/web&#45;1/enablevmaccess</title>
<image xlink:href="C:\Users\admin\Documents\PowerShell\Modules\AzViz\1.2.1\icons\extensions.png" width="50px" height="37px" preserveAspectRatio="xMinYMin meet" x="419" y="-454"/>
<text text-anchor="start" x="376" y="-407.2" font-family="Courier New" font-weight="bold" font-size="11.00">Web&#45;1/enablevmaccess</text>
</g>
<!-- microsoft.compute/virtualmachines/extensions/web&#45;1/enablevmaccess&#45;&gt;microsoft.compute/virtualmachines/web&#45;1 -->
<g id="edge27" class="edge">
<title>microsoft.compute/virtualmachines/extensions/web&#45;1/enablevmaccess&#45;&gt;microsoft.compute/virtualmachines/web&#45;1</title>
<path fill="none" stroke="lightslategrey" stroke-dasharray="5,2" d="M438.6,-397.15C434.2,-372.03 427.96,-336.35 423.15,-308.85"/>
<polygon fill="lightslategrey" stroke="lightslategrey" points="426.55,-308 421.38,-298.75 419.66,-309.21 426.55,-308"/>
</g>
<!-- microsoft.compute/virtualmachines/extensions/web&#45;2/enablevmaccess -->
<g id="node22" class="node">
<title>microsoft.compute/virtualmachines/extensions/web&#45;2/enablevmaccess</title>
<image xlink:href="C:\Users\admin\Documents\PowerShell\Modules\AzViz\1.2.1\icons\extensions.png" width="50px" height="37px" preserveAspectRatio="xMinYMin meet" x="243" y="-454"/>
<text text-anchor="start" x="200" y="-407.2" font-family="Courier New" font-weight="bold" font-size="11.00">Web&#45;2/enablevmaccess</text>
</g>
<!-- microsoft.compute/virtualmachines/extensions/web&#45;2/enablevmaccess&#45;&gt;microsoft.compute/virtualmachines/web&#45;2 -->
<g id="edge28" class="edge">
<title>microsoft.compute/virtualmachines/extensions/web&#45;2/enablevmaccess&#45;&gt;microsoft.compute/virtualmachines/web&#45;2</title>
<path fill="none" stroke="lightslategrey" stroke-dasharray="5,2" d="M276.68,-397.15C283.77,-371.92 293.87,-336.03 301.61,-308.49"/>
<polygon fill="lightslategrey" stroke="lightslategrey" points="305.01,-309.33 304.35,-298.75 298.27,-307.43 305.01,-309.33"/>
</g>
<!-- microsoft.network/loadbalancers/backendaddresspools/redteam&#45;lb/rtpool -->
<g id="node23" class="node">
<title>microsoft.network/loadbalancers/backendaddresspools/redteam&#45;lb/rtpool</title>
<image xlink:href="C:\Users\admin\Documents\PowerShell\Modules\AzViz\1.2.1\icons\resources.png" width="50px" height="37px" preserveAspectRatio="xMinYMin meet" x="80.5" y="-292"/>
<text text-anchor="start" x="48" y="-245.2" font-family="Courier New" font-weight="bold" font-size="11.00">RedTeam&#45;LB/RTPool</text>
</g>
<!-- microsoft.network/loadbalancers/backendaddresspools/redteam&#45;lb/rtpool&#45;&gt;microsoft.network/loadbalancers/redteam&#45;lb -->
<g id="edge29" class="edge">
<title>microsoft.network/loadbalancers/backendaddresspools/redteam&#45;lb/rtpool&#45;&gt;microsoft.network/loadbalancers/redteam&#45;lb</title>
<path fill="none" stroke="lightslategrey" stroke-dasharray="5,2" d="M97.86,-235.23C95.94,-226.91 93.81,-217.73 91.73,-208.77"/>
<polygon fill="lightslategrey" stroke="lightslategrey" points="95.09,-207.76 89.42,-198.81 88.27,-209.34 95.09,-207.76"/>
</g>
<!-- main -->
<!-- d0 -->
<!-- d1 -->
<!-- d0&#45;&gt;d1 -->
<g id="edge30" class="edge">
<title>d0&#45;&gt;d1</title>
<path fill="none" stroke="lightslategrey" stroke-dasharray="5,2" d="M898.83,-429C907,-429 940.53,-429 958.87,-429"/>
<polygon fill="lightslategrey" stroke="lightslategrey" points="958.96,-432.5 968.96,-429 958.96,-425.5 958.96,-432.5"/>
<text text-anchor="middle" x="934" y="-444.8" font-family="Courier New" font-size="9.00">Resource</text>
<text text-anchor="middle" x="934" y="-434.8" font-family="Courier New" font-size="9.00">Dependency</text>
</g>
<!-- p0 -->
<!-- p1 -->
<!-- p0&#45;&gt;p1 -->
<g id="edge31" class="edge">
<title>p0&#45;&gt;p1</title>
<path fill="none" stroke="#436eee" d="M797.95,-429C806.79,-429 843.45,-429 862.84,-429"/>
<polygon fill="#436eee" stroke="#436eee" points="863.12,-432.5 873.12,-429 863.12,-425.5 863.12,-432.5"/>
<text text-anchor="middle" x="835.5" y="-444.8" font-family="Courier New" font-size="9.00">Network</text>
<text text-anchor="middle" x="835.5" y="-434.8" font-family="Courier New" font-size="9.00">Association</text>
</g>
</g>
</svg>
